<svg xmlns="http://www.w3.org/2000/svg" viewBox="0 0 24 24" fill="#0db7ed"><path d="M13.983 11.078h2.119a.186.186 0 00.186-.185V9.006a.186.186 0 00-.186-.186h-2.119a.185.185 0 00-.185.185v1.888c0 .102.083.185.185.185m-2.954-5.43h2.119a.186.186 0 00.186-.186V3.574a.186.186 0 00-.186-.185h-2.119a.185.185 0 00-.185.185v1.888c0 .102.083.186.185.186m-2.93 0h2.12a.186.186 0 00.184-.186V3.574a.185.185 0 00-.184-.185h-2.12a.185.185 0 00-.184.185v1.888c0 .102.083.186.184.186m-2.93 0h2.12a.186.186 0 00.184-.186V3.574a.185.185 0 00-.184-.185h-2.12a.185.185 0 00-.184.185v1.888c0 .102.083.186.184.186m2.93 2.716h2.12a.186.186 0 00.184-.185V6.291a.186.186 0 00-.184-.186h-2.12a.185.185 0 00-.184.186v1.888c0 .102.083.185.184.185m-2.93 0h2.12a.186.186 0 00.184-.185V6.291a.186.186 0 00-.184-.186h-2.12a.185.185 0 00-.184.186v1.888c0 .102.083.185.184.185m-2.93 0h2.12a.186.186 0 00.184-.185V6.291a.186.186 0 00-.184-.186h-2.12a.185.185 0 00-.184.186v1.888c0 .102.083.185.184.185m2.93 2.716h2.12a.186.186 0 00.184-.185V9.006a.186.186 0 00-.184-.186h-2.12a.185.185 0 00-.184.186v1.888c0 .102.083.185.184.185m-2.93 0h2.12a.186.186 0 00.184-.185V9.006a.186.186 0 00-.184-.186h-2.12a.185.185 0 00-.184.186v1.888c0 .102.083.185.184.185m-2.93 0h2.12a.186.186 0 00.184-.185V9.006a.186.186 0 00-.184-.186h-2.12a.185.185 0 00-.184.186v1.888c0 .102.083.185.184.185M24 11.235c-.09 1.13-.585 2.158-1.34 2.97-.04.041-.295.309-.378.384-.508.455-1.12.809-1.8.995-.084.025-.262.062-.358.067-.5.033-1.026-.062-1.503-.255-.06-.022-.24-.108-.346-.168a5.228 5.228 0 01-1.258-1.037c-.073-.082-.26-.328-.277-.354-.447-.697-.684-1.507-.638-2.333.15-2.035 1.776-3.715 3.82-3.924.582-.062 1.18.005 1.722.186.082.029.273.111.402.182.72.392 1.282.977 1.621 1.731.042.091.135.344.153.398.125.438.188.905.18 1.159zM19.349 7.737c-.752.176-1.397.669-1.761 1.373-.04.075-.12.269-.142.34-.145.434-.15.908-.019 1.346.035.111.127.352.17.433.364.717 1.015 1.215 1.77 1.377.378.083.778.07 1.156-.036.096-.028.286-.112.378-.172.583-.377 1.01-1.006 1.12-1.698.026-.14.026-.531.002-.682-.083-.695-.45-1.32-1.002-1.745-.078-.06-.23-.153-.326-.19a2.33 2.33 0 00-1.346-.346z"/></svg>
