<svg xmlns="http://www.w3.org/2000/svg" viewBox="0 0 448 512">
  <path fill="#F5A623" d="M220.8 123.3c1 .5 1.8 1.7 3 1.7 1.1 0 2.8-.4 2.9-1.5.2-1.4-1.9-2.3-3.2-2.9-1.7-.7-3.9-1-5.5-.1-.4.2-.8.7-.6 1.1.3 1.1 2.3 1.1 3.4 1.7zm-21.9 1.7c1.2 0 2-1.2 3-1.7 1.1-.6 3.1-.6 3.5-1.6.2-.4-.2-.9-.6-1.1-1.6-.9-3.8-.6-5.5.1-1.3.6-3.4 1.5-3.2 2.9.1 1 1.8 1.5 2.8 1.4zM420 403.8c-3.6-4-5.3-11.6-7.2-19.7-1.8-8.1-3.9-16.8-10.5-22.4-1.3-1.1-2.6-2.1-4-2.9-1.3-.8-2.7-1.5-4.1-2 9.2-27.3 5.6-54.5-3.7-79.1-11.4-30.1-31.3-56.4-46.5-74.4-17.1-21.5-33.7-41.9-33.4-72C311.1 85.4 315.7.1 234.8 0 132.4-.2 158 103.4 156.9 135.2c-1.7 23.4-6.4 41.8-22.5 64.7-18.1 26.4-36.3 48.9-45.2 77.5-.6 1.9-1.1 3.8-1.6 5.7-4.7 2.2-8.7 6.1-11.9 11.4-6.5-2.6-16.7-5-25.7 5.2-6.6 7.3-9.3 17.7-8.2 27.9 1.5 12.5 9.9 21.2 14.5 24.3L62 352.8C58.4 385.1 63.5 436 124.8 436c59.4 0 79.5-28.3 81.5-62.6l2.4-31.7c6.9 2.1 14.7 4.5 20.6 4.5 6.7 0 13.8-1.8 20.9-4.7L252 373c0 4.1 1.4 9.3 3.7 14.8-23.8 8.7-25.3 32.9 2.5 36.7 29.1 4 32.7-20.7 8.3-37.6-.2-4.3-.9-8.6-1.1-13-.6-10.2.3-18.5 4.4-29.4l.9-2.1c10.4 1.4 22.9-2.1 31.7-5.2L307 405c2 34.3 22.1 62.6 81.5 62.6 61.3 0 66.4-50.9 62.8-83.2l-31-4.6zm-158.6-141.2c4 0 7.3 3.3 7.3 7.3 0 4-3.3 7.3-7.3 7.3-4 0-7.3-3.3-7.3-7.3 0-4 3.2-7.3 7.3-7.3zm-101.4 0c4 0 7.3 3.3 7.3 7.3 0 4-3.3 7.3-7.3 7.3-4 0-7.3-3.3-7.3-7.3 0-4 3.3-7.3 7.3-7.3z"/>
</svg>
